<svg xmlns="http://www.w3.org/2000/svg" width="241" height="54" viewBox="0 0 241 54"><g><g><path fill="#fff" d="M25.24 42.79l16.65-.146-10.81-18.508-13.64 24.312L0 48.602 25.747 3.835l3.229 5.527L9.67 42.928l4.52-.04 16.792-29.93 20.555 35.19-28.619.252zM67.677 53.99L36.366.225l.371-.22 9.885 16.975v-5.317h5.181l4.22 7.043 4.22-7.043h5.181v18.191h-4.877V19.408l-4.524 7.12h-.1l-4.5-7.068v5.765l16.624 28.544zm2.808-33.178v-.052c0-5.223 4.094-9.46 9.553-9.46 5.459 0 9.502 4.184 9.502 9.408v.052c0 5.223-4.095 9.459-9.553 9.459-5.459 0-9.502-4.184-9.502-9.407zm14.051 0v-.052c0-2.625-1.845-4.912-4.55-4.912-2.678 0-4.472 2.235-4.472 4.86v.052c0 2.625 1.845 4.911 4.524 4.911 2.704 0 4.498-2.234 4.498-4.859zm10.089-9.148h4.574l7.278 9.616v-9.616h4.852v18.191h-4.296l-7.556-9.979v9.98h-4.852zm26.691 4.418h-5.307v-4.418h15.517v4.418h-5.307v13.773h-4.903zm14.99-4.418h4.929v18.191h-4.929zm10.086 9.148v-.052c0-5.301 3.968-9.46 9.325-9.46 3.614 0 5.939 1.56 7.506 3.795l-3.69 2.936c-1.01-1.3-2.173-2.13-3.866-2.13-2.476 0-4.22 2.156-4.22 4.807v.052c0 2.729 1.744 4.86 4.22 4.86 1.845 0 2.931-.884 3.993-2.21l3.69 2.703c-1.668 2.365-3.918 4.106-7.835 4.106-5.054 0-9.123-3.976-9.123-9.407zm21.586-9.148h14.229v4.288h-9.376v2.755h8.49v3.976h-8.49v2.884h9.502v4.288h-14.355zm19.388 0h4.903v13.774h8.567v4.417h-13.47zm18.099 0h4.902v13.774h8.568v4.417h-13.47zm16.48 9.148v-.052c0-5.223 4.095-9.46 9.554-9.46 5.459 0 9.502 4.184 9.502 9.408v.052c0 5.223-4.095 9.459-9.553 9.459-5.459 0-9.502-4.184-9.502-9.407zm14.052 0v-.052c0-2.625-1.845-4.912-4.55-4.912-2.678 0-4.472 2.235-4.472 4.86v.052c0 2.625 1.844 4.911 4.524 4.911 2.704 0 4.498-2.234 4.498-4.859zM71.494 39.707h.678v6.06h-.678zm5.875 0h.636l3.786 4.857v-4.857h.661v6.06h-.541l-3.88-4.97v4.97h-.662zm11.811.63h-2.018v-.63h4.722v.63h-2.018v5.43h-.686zm7.414-.63h4.345v.623h-3.666v2.069h3.279v.623h-3.28v2.121h3.71v.625h-4.388zm9.19 0h2.585c.739 0 1.331.225 1.709.606.291.294.463.719.463 1.194v.018c0 1.004-.687 1.593-1.63 1.766l1.845 2.477h-.833l-1.742-2.355h-1.717v2.355h-.68zm2.525 3.09c.902 0 1.545-.468 1.545-1.246v-.017c0-.746-.566-1.196-1.536-1.196h-1.854v2.46zm7.123-3.09h.636l3.786 4.857v-4.857h.66v6.06h-.54l-3.88-4.97v4.97h-.662zm12.446-.044h.635l2.739 6.105h-.73l-.704-1.603h-3.27l-.714 1.603h-.695zm1.674 3.888l-1.365-3.09-1.374 3.09zm7.14-3.213h-2.018v-.631h4.722v.63h-2.018v5.43h-.686zm7.475-.631h.677v6.06h-.677zm5.61 3.047v-.017c0-1.671 1.244-3.135 3.073-3.135s3.056 1.447 3.056 3.118v.017c0 1.67-1.245 3.134-3.074 3.134-1.829 0-3.056-1.446-3.056-3.117zm5.425 0v-.017c0-1.377-.996-2.502-2.37-2.502-1.373 0-2.352 1.108-2.352 2.485v.017c0 1.376.996 2.502 2.37 2.502 1.373 0 2.352-1.108 2.352-2.485zm5.577-3.047h.636l3.786 4.857v-4.857h.66v6.06h-.54l-3.881-4.97v4.97h-.661zm12.446-.044h.636l2.738 6.105h-.73l-.703-1.603h-3.27l-.714 1.603h-.695zm1.675 3.888l-1.366-3.09-1.373 3.09zm6.324-3.844h.679v5.428h3.382v.633h-4.06zm14.5 3.047v-.017c0-1.663 1.211-3.135 3.014-3.135 1.013 0 1.64.295 2.24.805l-.438.52c-.463-.406-.978-.692-1.827-.692-1.332 0-2.285 1.133-2.285 2.485v.017c0 1.445.919 2.52 2.379 2.52a2.82 2.82 0 0 0 1.733-.606v-1.507h-1.827v-.615h2.48v2.416c-.558.502-1.4.926-2.413.926-1.888 0-3.055-1.385-3.055-3.117zm10.437-3.047h2.585c.738 0 1.33.225 1.708.606.292.294.464.719.464 1.194v.018c0 1.004-.688 1.593-1.631 1.766l1.845 2.477h-.833l-1.742-2.355h-1.717v2.355h-.679zm2.524 3.09c.902 0 1.545-.468 1.545-1.246v-.017c0-.746-.566-1.196-1.536-1.196h-1.854v2.46zm6.857-.043v-.017c0-1.671 1.244-3.135 3.073-3.135s3.056 1.447 3.056 3.118v.017c0 1.67-1.245 3.134-3.073 3.134-1.83 0-3.056-1.446-3.056-3.117zm5.425 0v-.017c0-1.377-.995-2.502-2.37-2.502-1.373 0-2.352 1.108-2.352 2.485v.017c0 1.376.996 2.502 2.37 2.502 1.373 0 2.352-1.108 2.352-2.485zm5.484.477v-3.524h.678v3.48c0 1.307.687 2.043 1.837 2.043 1.108 0 1.812-.675 1.812-2v-3.523h.678v3.472c0 1.766-1.004 2.683-2.507 2.683-1.485 0-2.498-.917-2.498-2.631zm10.05-3.524h2.25c1.356 0 2.249.727 2.249 1.922v.017c0 1.308-1.082 1.983-2.36 1.983h-1.46v2.139h-.679zm2.164 3.298c.995 0 1.648-.536 1.648-1.334v-.017c0-.866-.644-1.316-1.614-1.316h-1.52v2.667z"/></g></g></svg>